PathFileType	4	(X/Y/Z)	/home/abdul/Desktop/myosuite/custom_workspace/IK/output/S1_12_2.trc
DataRate	CameraRate	NumFrames	NumMarkers	Units	OrigDataRate	OrigDataStartFrame	OrigNumFrames
200.0	200.0	55	3	mm	200.0	987	1578
Frame#	Time	V_Shoulder			V_Elbow			V_Wrist		
		X1	Y1	Z1	X2	Y2	Z2	X3	Y3	Z3

987	4.93	-197.44529619788543	492.11822493405407	366.12667097075615	-272.9709234329217	335.8558588659346	33.9521867284018	-131.37510504669658	104.31310408749123	73.70699262625442
988	4.935	-197.52844825369144	492.00746020509456	366.07130335074527	-273.0602103283969	335.8169788851271	33.87321495849028	-131.43636281807136	104.27853891489278	73.67122130565822
989	4.94	-197.6111826095691	491.89516555694877	366.01552582197536	-273.15117358848187	335.7794153281399	33.79378755442677	-131.49905733463333	104.24436177313513	73.63455725149775
990	4.945	-197.69347069435443	491.78131950554507	365.95933483757653	-273.2438686754917	335.7431330809637	33.71392439453031	-131.56325883741388	104.21054825264594	73.59704289348075
991	4.95	-197.77528470051507	491.6659010984695	365.9027280735252	-273.3383461406932	335.7080898993701	33.63364740465932	-131.62903143244682	104.17707204257496	73.55872837389087
992	4.955	-197.85659762054456	491.54888985650297	365.8457044070863	-273.4346513316043	335.6742365337734	33.55298033187784	-131.6964327235065	104.14390507621164	73.51967116203906
993	4.96	-197.9373832819982	491.4302657163594	365.7882638916141	-273.5328241216961	335.6415168802031	33.471948515620824	-131.76551347546769	104.11101767965049	73.47993564633076
994	4.965	-198.0176163810676	491.3100089750009	365.7304077279505	-273.63289866395087	335.60986815657	33.39057865797296	-131.83631730982398	104.07837872256991	73.43959270592435
995	4.97	-198.09727251459609	491.1881002359026	365.67213823266985	-273.7349031696305	335.57922110331845	33.308898594649115	-131.90888043373437	104.04595577002709	73.39871926399562
996	4.975	-198.17632821044015	491.0645203576257	365.6134588034295	-273.8388597135056	335.5495002074759	33.22693706822498	-131.98323140379478	104.01371523421625	73.35739782465376
997	4.98	-198.25476095608448	490.9392504050505	365.55437388169577	-273.9447840666789	335.52062394903066	33.14472350511625	-132.05939092555468	103.9816225251893	73.31571599557796
998	4.985	-198.33254922542577	490.8122716036007	365.4948889131221	-274.0526855580099	335.4925050684918	33.06228779774208	-132.13737168961825	103.94964219959351	73.27376599845928
999	4.99	-198.40967250364199	490.6835652967822	365.43501030586157	-274.16256696501216	335.46505085441345	32.979660093236305	-132.21717824498825	103.91773810654308	73.23164416934128
1000	4.995	-198.48611131007044	490.5531129073336	365.3747453870994	-274.2744244349518	335.43816344959487	32.89687058998705	-132.2988069101271	103.88587352980636	73.18945045095408
1001	5.0	-198.5618472190233	490.42089590227596	365.31410235809614	-274.3882474367229	335.41174017460605	32.8139493431941	-132.3822457220278	103.85401132555832	73.14728787913157
1002	5.005	-198.6368628784746	490.28689576211974	365.2530902480299	-274.5040187439166	335.3856738672237	32.730926080533685	-132.4674744234047	103.82211405501945	73.10526206538958
1003	5.01	-198.7111420265591	490.1510939544719	365.191718866926	-274.6217144493371	335.35985323630894	32.64783002891455	-132.5544644879351	103.79014411137275	73.06348067772538
1004	5.015	-198.78466950582867	490.01347191225926	365.1299987579634	-274.74130401104657	335.334163228606	32.56468975319701	-132.64317918330673	103.75806384042396	73.02205292167447
1005	5.02	-198.85743127522065	489.87401101676096	365.0679411494397	-274.86275032985134	335.3084854068942	32.48153300763089	-132.73357367165318	103.72583565454231	72.98108902363144
1006	5.025	-198.92941441969694	489.732692585618	365.00555790667244	-274.98600985796435	335.2826983378857	32.39838660064936	-132.82559514679122	103.69342213949011	72.94069971840607
1007	5.03	-199.000607157521	489.58949786596037	364.9428614841084	-275.11103273840723	335.2566779882253	32.31527627353532	-132.91918300751348	103.66078615381977	72.90099574294575
1008	5.035	-199.0709988451483	489.4444080327683	364.87986487790505	-275.2377629745424	335.23029812692357	32.23222659335699	-133.0142690660326	103.62789092058456	72.86208733810946
1009	5.04	-199.1405799797103	489.29740419255455	364.816581579236	-275.36613862895456	335.2034307325294	32.14926086045029	-133.11077779052425	103.59470011117482	72.82408376032741
1010	5.045	-199.20934219908318	489.1484673924277	364.7530255285673	-275.4960920507396	335.1759464033386	32.06640103061001	-133.20862658057575	103.56117792115268	72.787092804926
1011	5.05	-199.27727827953774	488.99757863456966	364.6892110711338	-275.6275501300994	335.147714768928	31.983667652039987	-133.30772607421255	103.52728913801758	72.75122034283646
1012	5.055	-199.34438213097656	488.8447188961323	364.625152913837	-275.7604345789953	335.1186049013061	31.90107981700629	-133.40798048505084	103.49299920088907	72.71656987234188
1013	5.06	-199.41064878977178	488.68986915452933	364.56086608376864	-275.8946622364705	335.0884857239865	31.818655128037832	-133.50928796800738	103.45827425214412	72.68324208744777
1014	5.065	-199.47607440922388	488.53301041807435	364.4963658885522	-276.03014539712757	335.0572264173062	31.736409678426632	-133.6115410118917	103.42308118109204	72.65133446438871
1015	5.07	-199.54065624767335	488.3741237618856	364.43166787867716	-276.16679216112976	335.0246968183454	31.654358046695986	-133.7146268571077	103.38738765981238	72.62094086770614
1016	5.075	-199.6043926543	488.2131903689555	364.366787811988	-276.3045068039943	334.99076781383934	31.572513304629748	-133.81842793660513	103.35116217131747	72.59215117725164
1017	5.08	-199.66728305265784	488.050191576254	364.3017416204682	-276.44319016435634	334.9553117245232	31.490887038389722	-133.92282233814208	103.3143740302353	72.56505093738525
1018	5.085	-199.72932792199717	487.88510892570974	364.2365453794487	-276.5827400478101	334.9182026794062	31.409489382191616	-134.02768428585398	103.27699339623538	72.53972102955076
1019	5.09	-199.7905287764354	487.7179242198899	364.17121527934705	-276.7230516448732	334.879316978534	31.328329063962123	-134.13288463906562	103.238991280445	72.51623736931796
1020	5.095	-199.85088814204553	487.5486195821762	364.1057676000289	-276.8640179610742	334.83853344287263	31.247413462361095	-134.2382914062362	103.20033954512306	72.49467062888812
1021	5.1	-199.9104095319367	487.37717752120994	364.0402186878661	-277.0055302571329	334.7957337500221	31.166748674522566	-134.3437702718901	103.16101089687402	72.4750859859609
1022	5.105	-199.96909741941008	487.2035809993609	363.9745849355433	-277.14747849718486	334.75080275455673	31.086339593845928	-134.44918513435883	103.12097887369754	72.45754289976227
1023	5.11	-200.02695720927932	487.0278135049527	363.9088827646519	-277.28975180299574	334.703628791876	31.00618999715368	-134.5543986521428	103.08021782617695	72.44209491492924
1024	5.115	-200.08399520745039	486.84985912796037	363.843128611089	-277.4322389121179	334.65410396454627	30.926302640523524	-134.65927279669398	103.03870289311712	72.42878949384406
1025	5.12	-200.14021858886295	486.6697026388767	363.77733891326216	-277.5748286379613	334.6021244102119	30.84667936309985	-134.76366940942376	102.99640997194342	72.41766787790405
1026	5.125	-200.19563536389978	486.4873295704294	363.711530103082	-277.71741032977707	334.5475905502567	30.767321198191876	-134.86745076075147	102.95331568417495	72.40876497810505
1027	5.13	-200.25025434337635	486.3027263018175	363.6457185997095	-277.8598743305946	334.4904073184969	30.688228490971895	-134.97048010903154	102.90939733628352	72.40210929520833
1028	5.135	-200.30408510222773	486.1158801451208	363.57992080600553	-278.00211243119475	334.4304843692978	30.609401022096705	-135.07262225722587	102.86463287624638	72.39772286964978
1029	5.14	-200.3571379420123	485.92677943352754	363.5141531076154	-278.1440183182631	334.3677362646042	30.53083813658737	-135.17374410522854	102.81900084609555	72.39562126124073
1030	5.145	-200.40942385235834	485.7354136110153	363.44843187460384	-278.2854880149258	334.3020826394879	30.452538877316485	-135.27371519579611	102.77248033076151	72.39581355859812
1031	5.15	-200.4609544714798	485.54177332311	363.38277346554304	-278.42642031194123	334.2334483459122	30.374502122467025	-135.3724082520919	102.72505090350153	72.39830241813083
1032	5.155	-200.5117420458914	485.3458505083476	363.3171942339393	-278.5667171878955	334.1617635745238	30.29672672634251	-135.46969970491665	102.67669256819687	72.40308413229904
1033	5.16	-200.56179938945502	485.14763849005266	363.25171053687194	-278.7062842168308	334.08696395437704	30.21921166292381	-135.5654702077664	102.62738569879453	72.41014872675262
1034	5.165	-200.61113984189015	484.9471320680504	363.1863387457043	-278.8450309618188	334.00899063059944	30.1419561715831	-135.6596051379363	102.57711097616286	72.41948008584636
1035	5.17	-200.6597772268824	484.7443276099255	363.1210952587151	-278.98287135308266	333.9277903201002	30.06495990437989	-135.75199508197204	102.52584932262346	72.43105610592181
1036	5.175	-200.70772580992357	484.53922314144324	363.0559965154866	-279.1197240493618	333.84331534551694	29.98822307437741	-135.84253630385913	102.4735818344148	72.44484887563975
1037	5.18	-200.75500025601687	484.3318184357491	362.9910590128766	-279.2555127813107	333.75552364768697	29.9117466044297	-135.93113119443527	102.42028971233766	72.46082488254274
1038	5.185	-200.8016155873788	484.1221151009722	362.92629932239237	-279.39016667581967	333.6643787770133	29.83553227590053	-136.01768870061073	102.36595419082772	72.47894524492577
1039	5.19	-200.84758714126826	483.91011666585774	362.86173410877535	-279.52362056024936	333.56984986417865	29.759582876784563	-136.1021247330849	102.3105564656959	72.49916596799366
1040	5.195	-200.89293052807116	483.69582866306564	362.7973801496001	-279.6558152456703	333.47191157073996	29.68390234870922	-136.18436255135674	102.25407762077464	72.52143822318735
1041	5.2	-200.93766158976473	483.4792587097822	362.73325435568466	-279.7866977883058	333.37054402020925	29.608495932302272	-136.26433312493728	102.19649855370633	72.54570864946798
